<?xml version="1.0" standalone="no"?>
<!DOCTYPE svg PUBLIC "-//W3C//DTD SVG 20010904//EN"
 "http://www.w3.org/TR/2001/REC-SVG-20010904/DTD/svg10.dtd">
<svg version="1.0" xmlns="http://www.w3.org/2000/svg"
 width="356.000000pt" height="200.000000pt" viewBox="0 0 356.000000 200.000000"
 preserveAspectRatio="xMidYMid meet">

<g transform="translate(0.000000,200.000000) scale(0.100000,-0.100000)"
fill="#000000" stroke="none">
<path d="M1355 1978 c-2 -13 -15 -72 -29 -133 -25 -112 -47 -223 -71 -350 -7
-38 -23 -108 -34 -154 -12 -46 -21 -86 -21 -88 0 -7 74 40 78 49 2 4 10 8 18
8 8 0 14 5 14 11 0 5 -4 7 -10 4 -6 -3 -10 4 -10 17 l0 23 19 -24 c17 -22 19
-23 47 -8 16 9 26 16 22 17 -4 0 -2 15 4 33 5 17 10 43 9 56 -1 13 10 37 24
53 22 26 25 27 25 9 0 -12 -6 -21 -16 -21 -8 0 -12 -4 -9 -10 3 -5 1 -10 -4
-10 -6 0 -11 -7 -11 -17 0 -14 2 -14 21 3 21 19 21 19 17 -11 -2 -19 -11 -33
-25 -40 -13 -5 -23 -14 -23 -18 0 -14 62 4 103 30 l38 24 -3 -36 -3 -36 -205
-105 c-113 -58 -301 -155 -419 -215 -117 -61 -216 -107 -219 -104 -13 12 17
41 79 76 34 20 64 40 66 45 2 5 -16 15 -39 22 -58 18 -88 39 -88 61 0 11 -5
21 -10 23 -7 2 -7 15 0 38 18 61 30 286 17 332 -9 35 -42 45 -68 22 -10 -9
-19 -20 -19 -25 0 -4 -18 -37 -41 -75 -23 -37 -46 -81 -51 -98 -6 -17 -19 -40
-28 -51 -10 -11 -20 -27 -24 -35 -3 -8 -4 -5 -2 7 2 12 -2 24 -10 27 -9 3 -11
-1 -8 -12 4 -11 -2 -8 -16 8 l-23 25 7 -25 c6 -25 6 -25 -5 -2 -7 12 -16 22
-21 22 -5 0 -6 -6 -2 -12 6 -9 3 -9 -9 0 -9 8 -20 11 -26 8 -5 -3 -11 -2 -13
3 -1 5 -10 11 -18 13 -8 2 -19 8 -23 13 -5 6 -7 1 -4 -11 3 -14 0 -21 -9 -20
-7 0 -13 -1 -12 -4 0 -3 -7 -23 -15 -45 -8 -22 -20 -60 -28 -85 -14 -50 -13
-45 -28 -115 -16 -70 -54 -179 -66 -187 -5 -4 -6 -8 -2 -8 4 0 3 -9 -3 -20 -6
-11 -14 -19 -18 -19 -19 3 -33 -2 -27 -11 3 -5 1 -19 -5 -30 -6 -12 -13 -29
-15 -38 -2 -9 -11 -34 -20 -56 l-16 -38 26 6 c18 5 27 2 32 -10 9 -23 -18 -36
-38 -18 -20 18 -21 16 -43 -53 -26 -80 -15 -99 17 -29 15 33 29 57 32 54 3 -2
-4 -31 -14 -64 -34 -104 -45 -157 -49 -241 -2 -55 0 -83 7 -83 6 0 11 -5 11
-11 0 -5 -4 -7 -10 -4 -6 4 -10 -32 -10 -99 l0 -106 190 0 c105 0 198 4 208 9
9 5 147 39 307 75 l289 65 28 -26 c15 -15 28 -33 28 -40 0 -7 6 -13 13 -13 7
0 28 -16 47 -35 l35 -34 781 -1 781 0 11 25 c6 14 16 25 22 25 6 0 9 4 5 9 -7
13 22 41 46 42 10 1 22 2 27 3 4 1 41 6 82 10 41 5 84 10 95 12 43 8 314 43
385 49 41 4 97 11 124 16 27 5 50 9 52 9 2 0 4 16 4 35 0 43 -4 43 -169 15
-200 -34 -583 -91 -592 -88 -4 2 29 72 73 156 l81 153 76 -6 c42 -3 101 -10
131 -15 30 -6 66 -12 80 -14 14 -2 46 -13 72 -25 34 -16 76 -24 148 -28 l100
-6 0 212 0 211 -22 -5 c-53 -12 -277 -54 -318 -59 -25 -4 -73 -12 -107 -19
-52 -11 -63 -11 -63 0 0 7 3 13 8 13 4 1 25 5 47 9 22 5 99 21 170 36 72 14
139 28 150 31 11 3 42 9 68 14 27 5 53 12 58 15 12 8 12 825 0 825 -4 0 -19
-8 -32 -18 -13 -11 -82 -48 -152 -83 l-128 -64 5 -35 c3 -19 15 -84 26 -145
11 -60 16 -113 12 -117 -9 -8 -1069 -351 -1127 -364 -60 -13 -3 21 75 45 41
13 81 28 88 33 6 6 12 32 12 59 0 53 1 54 30 39 19 -10 19 -11 0 -43 -25 -40
-25 -51 -2 -42 9 4 25 8 34 10 9 2 27 9 40 16 13 7 27 12 32 11 5 -2 16 4 25
11 9 8 30 19 46 25 28 10 27 10 -22 11 -28 1 -55 6 -58 11 -4 6 20 43 52 82
79 97 93 119 93 146 0 29 -21 28 -51 -4 -34 -37 -154 -115 -217 -142 -57 -25
-103 -22 -81 4 8 10 8 14 0 14 -6 0 -11 4 -11 8 0 5 14 9 30 9 44 0 59 18 33
41 -19 16 -20 20 -6 46 14 27 14 29 -3 21 -11 -4 -35 -13 -54 -20 -19 -7 -36
-19 -39 -26 -7 -24 -24 -28 -38 -11 -12 17 -19 51 -7 39 14 -14 63 16 73 45
14 39 10 43 -26 25 -16 -8 -46 -15 -67 -14 -36 1 -37 2 -32 30 3 16 6 33 6 38
0 5 9 9 20 9 10 0 24 9 30 19 8 16 6 20 -11 23 -12 2 -27 11 -33 20 -14 23 21
61 86 94 26 13 62 37 80 52 41 35 102 70 150 88 32 11 50 11 113 -1 41 -8 86
-22 100 -31 49 -32 99 -154 63 -154 -6 0 -9 3 -5 6 3 3 -3 15 -13 26 -15 16
-22 18 -38 9 -12 -6 -38 -15 -59 -19 -52 -11 -51 -36 2 -40 28 -3 43 1 51 13
16 22 34 11 34 -20 0 -23 -34 -65 -52 -65 -4 0 -8 -5 -8 -11 0 -6 9 -9 20 -6
11 3 20 2 20 -3 0 -4 10 -10 23 -13 12 -4 31 -12 41 -20 18 -13 18 -18 6 -63
-7 -27 -16 -53 -20 -59 -12 -16 -44 -164 -37 -171 4 -5 565 170 574 179 1 1
-5 34 -12 72 -8 39 -25 144 -40 235 -14 91 -32 199 -39 240 -8 41 -20 110 -27
153 -6 42 -15 77 -19 77 -4 0 -101 -45 -215 -100 -114 -55 -208 -100 -210
-100 -1 0 -85 -40 -186 -89 -101 -49 -209 -100 -239 -114 -65 -30 -394 -188
-397 -190 -1 -1 -9 -85 -19 -187 -15 -160 -27 -221 -40 -207 -5 4 33 398 38
403 5 4 387 189 483 234 33 15 143 68 245 117 102 49 256 123 343 164 l158 74
-140 3 c-140 3 -141 2 -203 -29 -35 -17 -70 -37 -78 -44 -8 -7 -37 -20 -65
-31 -27 -10 -61 -25 -74 -33 -16 -10 -66 -17 -155 -22 -72 -4 -167 -15 -211
-24 -251 -51 -463 -168 -559 -310 -34 -50 -42 -56 -44 -38 -5 36 53 144 110
205 78 82 249 198 294 198 8 0 17 6 20 14 3 8 12 12 20 9 7 -3 48 2 91 10 148
29 229 38 339 36 102 -1 114 1 133 20 11 11 28 21 36 21 8 0 15 5 15 10 0 6
-38 10 -95 10 -57 0 -95 -4 -95 -10 0 -5 -5 -10 -11 -10 -5 0 -7 5 -4 10 4 7
-170 10 -514 10 l-521 0 -5 -22z m925 2 c0 -5 -5 -10 -11 -10 -5 0 -7 5 -4 10
3 6 8 10 11 10 2 0 4 -4 4 -10z m-240 -64 c0 -3 -4 -8 -10 -11 -5 -3 -10 -1
-10 4 0 6 5 11 10 11 6 0 10 -2 10 -4z m-596 -320 c10 13 15 14 21 4 6 -9 4
-11 -5 -5 -10 6 -12 4 -7 -8 4 -10 2 -16 -5 -14 -7 1 -12 -3 -13 -10 0 -6 -3
-15 -7 -19 -5 -4 -8 -16 -8 -26 0 -10 -4 -18 -10 -18 -6 0 -6 9 -1 23 4 12 6
28 4 35 -3 6 0 12 5 12 6 0 9 8 7 18 -1 9 0 11 2 4 4 -10 8 -9 17 4z m-1106
-291 c-3 -3 -9 2 -12 12 -6 14 -5 15 5 6 7 -7 10 -15 7 -18z m339 -21 c-3 -3
-12 -4 -19 -1 -8 3 -5 6 6 6 11 1 17 -2 13 -5z m1563 -108 c0 -3 -4 -8 -10
-11 -5 -3 -10 -1 -10 4 0 6 5 11 10 11 6 0 10 -2 10 -4z m-27 -41 c-3 -9 -8
-14 -10 -11 -3 3 -2 9 2 15 9 16 15 13 8 -4z m-1583 -49 c0 -3 -4 -8 -10 -11
-5 -3 -10 -1 -10 4 0 6 5 11 10 11 6 0 10 -2 10 -4z m1647 -71 c-29 -26 -47
-32 -47 -16 0 13 41 41 60 41 10 -1 6 -9 -13 -25z m-1987 -15 c0 -5 -7 -10
-16 -10 -8 0 -12 5 -9 10 3 6 10 10 16 10 5 0 9 -4 9 -10z m271 -4 c-10 -11
-8 -17 6 -26 17 -11 16 -11 -2 -4 -11 3 -30 9 -43 11 -12 3 -25 10 -29 16 -4
6 3 8 20 3 14 -3 29 -2 32 4 3 5 11 10 17 10 7 0 6 -5 -1 -14z m1617 -29 c-4
-26 -42 -41 -58 -22 -9 11 -7 18 9 34 24 24 53 17 49 -12z m-1758 -37 c0 -5
-4 -10 -10 -10 -5 0 -10 5 -10 10 0 6 5 10 10 10 6 0 10 -4 10 -10z m1455 0
c3 -5 1 -10 -5 -10 -6 0 -8 -5 -5 -10 9 -15 -3 -47 -18 -47 -45 -2 -90 -39
-82 -70 3 -12 1 -25 -5 -28 -5 -3 -10 -13 -10 -22 0 -14 2 -14 19 1 18 16 19
16 17 -1 0 -11 5 -17 13 -15 8 2 17 -2 21 -8 5 -8 12 -7 23 4 17 17 32 22 22
7 -3 -6 2 -14 10 -18 13 -8 10 -13 -15 -31 l-30 -22 10 25 c15 40 -14 29 -39
-15 -10 -17 -10 -25 -2 -28 6 -2 11 -8 11 -13 0 -6 -5 -7 -10 -4 -6 4 -10 3
-9 -2 1 -4 -4 -21 -11 -38 -10 -23 -14 -26 -17 -12 -3 9 -9 15 -14 12 -5 -4
-9 1 -9 9 0 9 6 13 14 10 10 -4 13 0 11 13 -1 10 -7 17 -11 16 -8 -1 -11 69
-6 163 4 71 102 175 127 134z m-1412 -65 c0 -6 -7 -11 -16 -13 -12 -3 -15 1
-11 13 7 17 25 17 27 0z m47 -9 c0 -3 -4 -8 -10 -11 -5 -3 -10 -1 -10 4 0 6 5
11 10 11 6 0 10 -2 10 -4z m51 -29 c-13 -13 -26 -3 -16 12 3 6 11 8 17 5 6 -4
6 -10 -1 -17z m1349 -42 c-13 -14 -26 -23 -28 -20 -3 3 5 16 18 30 13 14 26
23 28 20 3 -3 -5 -16 -18 -30z m-407 13 c-13 -6 -25 -19 -28 -30 -4 -10 -10
-16 -15 -13 -5 3 -19 1 -32 -4 -14 -5 -30 -6 -37 -1 -15 9 81 58 114 58 19 1
18 0 -2 -10z m137 8 c0 -3 -4 -8 -10 -11 -5 -3 -10 -1 -10 4 0 6 5 11 10 11 6
0 10 -2 10 -4z m-1241 -90 c19 -23 -3 -26 -35 -5 l-29 19 26 0 c15 0 32 -6 38
-14z m107 -31 c18 -14 18 -14 -7 -15 -15 0 -29 7 -33 15 -7 19 14 19 40 0z
m2849 -10 c-10 -4 -262 -67 -318 -79 -21 -5 -28 -3 -25 6 3 7 22 16 44 21 183
40 263 55 284 55 14 0 21 -1 15 -3z m-3155 -15 c0 -5 -4 -10 -10 -10 -5 0 -10
5 -10 10 0 6 5 10 10 10 6 0 10 -4 10 -10z m122 -42 c-6 -6 -15 -8 -19 -4 -4
4 -1 11 7 16 19 12 27 3 12 -12z m1540 -1 c-1 -8 2 -18 8 -22 17 -11 11 -32
-11 -38 -43 -11 -49 -1 -40 67 0 4 8 5 17 2 9 -4 13 -2 8 5 -4 7 -1 10 7 7 8
-3 13 -12 11 -21z m-1747 -58 c-4 -12 -8 -27 -9 -33 -3 -22 -17 -36 -37 -36
-27 0 -24 26 6 46 14 9 25 23 25 30 0 8 5 14 11 14 6 0 8 -9 4 -21z m375 -44
c0 -8 -4 -15 -10 -15 -5 0 -10 7 -10 15 0 8 5 15 10 15 6 0 10 -7 10 -15z
m2052 -24 c-12 -11 -40 -22 -62 -26 -22 -4 -42 -11 -45 -15 -3 -5 8 -5 25 0
l31 9 -26 -30 c-14 -17 -25 -39 -25 -50 0 -10 -4 -19 -9 -19 -5 0 -16 -3 -24
-6 -13 -4 -14 2 -10 38 3 24 11 46 17 50 8 5 7 8 -1 8 -7 0 -13 6 -13 13 0 9
25 20 68 29 93 21 102 21 74 -1z m-2489 -257 c3 -3 3 -13 0 -21 -5 -12 -7 -12
-14 -1 -15 23 -4 40 14 22z m890 -31 c4 -3 -5 -14 -21 -23 -16 -10 -30 -13
-33 -7 -4 5 -13 6 -20 1 -8 -5 -23 -10 -34 -11 -11 -2 -23 -10 -28 -18 -10
-18 -34 -20 -40 -2 -3 9 -7 9 -18 1 -8 -6 -31 -14 -51 -18 -21 -4 -38 -11 -38
-17 0 -5 -11 -7 -25 -3 -16 4 -25 2 -25 -6 0 -6 -4 -8 -10 -5 -5 3 -16 3 -22
-2 -7 -4 -24 -8 -38 -9 -36 -1 -83 -15 -98 -31 -7 -7 -20 -13 -28 -13 -20 0
-18 27 4 39 13 8 9 10 -24 11 -38 0 -42 3 -47 30 -5 21 -14 31 -32 36 -30 7
-28 29 2 29 12 0 25 3 29 8 4 4 27 7 51 7 l43 0 0 -55 c0 -30 3 -55 8 -55 4 0
113 27 242 60 266 67 245 62 253 53z m-743 -38 c0 -24 5 -35 15 -35 10 0 15
11 15 35 0 23 5 35 14 35 8 0 14 -11 14 -27 0 -15 4 -29 9 -30 22 -8 47 -32
40 -39 -4 -4 -33 -9 -64 -12 -66 -6 -83 8 -83 70 0 31 4 38 20 38 16 0 20 -7
20 -35z"/>
<path d="M364 156 c-8 -21 13 -46 32 -39 20 8 13 47 -9 51 -9 2 -20 -4 -23
-12z"/>
<path d="M3150 1993 c0 -24 34 -189 40 -196 8 -9 136 125 163 172 l18 31 -110
0 c-61 0 -111 -3 -111 -7z"/>
<path d="M3390 1951 c-19 -27 -71 -84 -116 -127 l-81 -77 20 -111 c10 -61 20
-112 22 -114 3 -3 95 40 140 66 17 9 65 37 108 61 l77 45 0 153 0 153 -67 0
-68 0 -35 -49z"/>
<path d="M2400 1395 c-14 -7 -37 -16 -51 -19 -37 -8 -77 -42 -64 -55 13 -13
78 17 125 59 36 32 32 39 -10 15z"/>
<path d="M850 1069 c0 -5 5 -7 10 -4 6 3 10 8 10 11 0 2 -4 4 -10 4 -5 0 -10
-5 -10 -11z"/>
<path d="M3455 100 c-27 -4 -126 -17 -220 -29 -314 -39 -328 -42 -308 -57 14
-10 84 -13 326 -14 l307 0 0 55 c0 62 2 61 -105 45z"/>
<path d="M2760 10 c-40 -6 -37 -7 30 -8 52 -1 70 1 60 8 -16 11 -22 11 -90 0z"/>
</g>
</svg>
